<svg xmlns="http://www.w3.org/2000/svg" width="92" height="92"><defs><filter height="1.5" width="1.5" y="0" x="0" color-interpolation-filters="sRGB"><feOffset dy="0" dx="1" in="SourceAlpha" result="offOut"/><feGaussianBlur stdDeviation="1" in="offOut" result="blurOut"/></filter><linearGradient y2="1" x2="0" y1="0" x1="0"><stop style="stop-color:rgb(255,255,255);stop-opacity:0.6" offset="20%"/><stop style="stop-color:rgb(220,0,0);stop-opacity:0.5" offset="50%"/></linearGradient><linearGradient y2="1" x2="0" y1="0" x1="0"><stop style="stop-color:rgb(0,0,0);stop-opacity:0.3" offset="20%"/><stop style="stop-color:rgb(0,0,0);stop-opacity:0.6" offset="100%"/></linearGradient><filter style="color-interpolation-filters:sRGB;" id="filter22209"><feFlood flood-opacity="1" flood-color="rgb(91,93,90)" result="flood"/><feComposite in="flood" in2="SourceGraphic" operator="in" result="composite1"/><feGaussianBlur in="composite1" stdDeviation="0" result="blur"/><feOffset dx="0" dy="4" result="offset"/><feComposite in="SourceGraphic" in2="offset" operator="over" result="composite2"/></filter></defs><g style="display:inline"><g transform="translate(0.6186409,-2.3347435)" style="filter:url(#filter22209)"><g><circle style="color:#000000;display:inline;overflow:visible;visibility:visible;opacity:1;fill:#ffffff;fill-opacity:1;fill-rule:nonzero;stroke:#ffffff;stroke-width:0.32569826;stroke-linecap:round;stroke-linejoin:miter;stroke-miterlimit:10;stroke-dasharray:none;stroke-dashoffset:0;stroke-opacity:0.48743723;marker:none;enable-background:accumulate" cx="45.381359" cy="48.334743" r="40.79224"/><circle r="32.643799" cy="48.334743" cx="45.381359" style="color:#000000;display:inline;overflow:visible;visibility:visible;opacity:1;fill:none;fill-opacity:1;fill-rule:nonzero;stroke:#000000;stroke-width:3;stroke-linecap:round;stroke-linejoin:miter;stroke-miterlimit:10;stroke-dasharray:none;stroke-dashoffset:0;stroke-opacity:1;marker:none;enable-background:accumulate"/></g></g></g><g style="display:inline"><g transform="matrix(0.73170801,0,0,0.89061254,62.585414,-13.581686)" style="display:inline;stroke:#000000;stroke-width:1.31294143;stroke-miterlimit:4;stroke-dasharray:none;paint-order:stroke fill markers"><g transform="translate(0.4695196,-1.5015006)" style="stroke:#000000;stroke-width:1.31294143;stroke-miterlimit:4;stroke-dasharray:none"><path d="m -22.715841,41.496901 -5.98678,11.505659 -8.042473,7.467276 h 27.646001 l -8.042473,-7.467276 z" style="fill:#000000;stroke:#000000;stroke-width:1.31294143;stroke-linecap:butt;stroke-linejoin:round;stroke-miterlimit:4;stroke-dasharray:none;stroke-opacity:1;paint-order:stroke fill markers"/><path style="fill:#000000;stroke:#000000;stroke-width:1.31294143;stroke-linecap:butt;stroke-linejoin:round;stroke-miterlimit:4;stroke-dasharray:none;stroke-opacity:1;paint-order:stroke fill markers" d="m -26.817667,58.549927 v 8.900677 c -2.385378,5.258205 -6.571784,9.647215 -11.545204,12.527841 -2.257381,0.926654 -4.906624,1.64999 -6.330722,3.84482 -0.660436,1.482145 -1.343579,3.860209 -1.283976,5.487365 12.170652,-0.06204 31.550274,-0.116941 45.67493078,-0.116941 0.085868,-2.303274 -0.286664,-4.670609 -1.68960578,-6.50985 -1.2915289,-0.995205 -3.9557856,-3.332568 -5.6003765,-3.448256 -6.9078885,-2.793572 -7.7111435,-6.116949 -10.8055815,-11.504646 -0.03982,-3.048285 -0.174705,-6.094431 -0.214523,-9.142716 -2.734812,-0.04225 -5.470135,0.004 -8.204942,-0.03829 z"/></g></g></g></svg>