<svg xmlns="http://www.w3.org/2000/svg" width="92" height="92"><defs><filter height="1.5" width="1.5" y="0" x="0" color-interpolation-filters="sRGB"><feOffset dy="0" dx="1" in="SourceAlpha" result="offOut"/><feGaussianBlur stdDeviation="1" in="offOut" result="blurOut"/></filter><linearGradient y2="1" x2="0" y1="0" x1="0"><stop style="stop-color:rgb(255,255,255);stop-opacity:0.6" offset="20%"/><stop style="stop-color:rgb(220,0,0);stop-opacity:0.5" offset="50%"/></linearGradient><linearGradient y2="1" x2="0" y1="0" x1="0"><stop style="stop-color:rgb(0,0,0);stop-opacity:0.3" offset="20%"/><stop style="stop-color:rgb(0,0,0);stop-opacity:0.6" offset="100%"/></linearGradient><filter style="color-interpolation-filters:sRGB;" id="filter26276"><feFlood flood-opacity="1" flood-color="rgb(91,93,90)" result="flood"/><feComposite in="flood" in2="SourceGraphic" operator="in" result="composite1"/><feGaussianBlur in="composite1" stdDeviation="0" result="blur"/><feOffset dx="0" dy="4" result="offset"/><feComposite in="SourceGraphic" in2="offset" operator="over" result="composite2"/></filter></defs><g style="display:inline"><g transform="translate(0.6186409,-2.3347435)" style="filter:url(#filter26276)"><g><circle style="color:#000000;display:inline;overflow:visible;visibility:visible;opacity:1;fill:#ffffff;fill-opacity:1;fill-rule:nonzero;stroke:#ffffff;stroke-width:0.32569826;stroke-linecap:round;stroke-linejoin:miter;stroke-miterlimit:10;stroke-dasharray:none;stroke-dashoffset:0;stroke-opacity:0.48743723;marker:none;enable-background:accumulate" cx="45.381359" cy="48.334743" r="40.79224"/><circle r="32.643799" cy="48.334743" cx="45.381359" style="color:#000000;display:inline;overflow:visible;visibility:visible;opacity:1;fill:none;fill-opacity:1;fill-rule:nonzero;stroke:#d40000;stroke-width:3;stroke-linecap:round;stroke-linejoin:miter;stroke-miterlimit:10;stroke-dasharray:none;stroke-dashoffset:0;stroke-opacity:1;marker:none;enable-background:accumulate"/></g></g></g><g style="display:inline"><g style="display:inline;fill:#ff0000" transform="matrix(0.80490767,0,0,0.80490767,-372.11222,-374.94181)"><g transform="matrix(1.4054678,0,0,1.4054678,75.658851,396.07471)" style="stroke-width:1;stroke-miterlimit:4;stroke-dasharray:none;fill:#ff0000"><path d="m 306.95878,102.14519 c 7.66719,2.10131 10.34728,2.47362 17.3499,0.38879 l -2.88674,-14.454653 c -3.95828,2.006301 -8.41424,1.320116 -11.39745,-0.091 z" style="fill:#d40000;stroke:#ffffff;stroke-width:1.33407533;stroke-linecap:butt;stroke-linejoin:miter;stroke-miterlimit:4;stroke-dasharray:none;stroke-opacity:1"/><path d="m 262.1655,185.22418 c -2.59466,-11.80187 -103.54305,38.73329 -113.10593,62.20704 -42.3113,103.86038 -72.12915,199.29008 -186.378549,293.9129 11.908253,16.00162 83.420666,6.52866 141.407899,62.88268 17.88418,-18.602 65.86946,-234.42078 80.92642,-285.81433 0.2599,-0.88712 80.11298,23.0956 89.2583,21.25175 9.12409,1.94616 89.24076,-21.14071 89.49071,-20.25074 14.48042,51.55897 60.04555,267.90164 77.72027,286.70277 58.61475,-55.70103 130.01658,-45.42774 142.1033,-61.29499 C 470.40545,448.9248 441.65827,353.16713 400.51285,248.83939 391.21347,225.26 290.8374,173.59741 288.11072,185.36948" style="fill:#d40000;stroke:#d40000;stroke-width:16.4840107;stroke-linecap:butt;stroke-linejoin:miter;stroke-miterlimit:4;stroke-dasharray:none;stroke-opacity:1" transform="matrix(0.06852995,0,0,0.08094496,296.89962,61.263195)"/><path style="fill:#d40000;stroke:#d40000;stroke-width:0.88556033;stroke-linecap:butt;stroke-linejoin:miter;stroke-miterlimit:4;stroke-dasharray:none;stroke-opacity:1" d="m 314.11581,74.659995 c 0.72602,-1.679766 1.8012,-10.950568 1.8012,-10.950568 0,0 1.0343,9.437341 1.56104,10.982771 -0.31323,0.285712 -1.04129,1.281818 -1.24052,1.913585 -0.15281,0.508094 -0.31054,0.897753 -0.46995,1.182015 -0.15403,-0.287268 -0.30438,-0.67988 -0.44759,-1.190811 -0.18728,-0.635466 -0.89645,-1.645348 -1.20423,-1.93701 z"/></g><path style="fill:#d40000;stroke:#d40000;stroke-width:0.9375px;stroke-linecap:butt;stroke-linejoin:miter;stroke-opacity:1" d="m 519.67003,485.61625 c 1.43902,2.79796 -1.15946,8.41231 1.23323,10.23977 6.45067,4.9268 16.8308,21.3743 16.76769,27.72523 0.0105,-5.19947 -0.80528,-10.26124 -2.47581,-15.18055 3.05922,4.84813 6.26561,9.68155 6.60535,14.80163 0.6263,-5.03238 -1.71965,-10.395 -3.48513,-15.69313 2.87787,4.96932 6.69872,9.82077 7.5149,15.04781 -0.86992,-4.87434 -1.7574,-9.75119 -4.54324,-14.89923 3.27998,4.04682 6.7755,8.06285 8.16461,12.37979 -0.61223,-3.43466 -2.50838,-7.603 -5.07734,-12.15579 l 7.53729,8.35647 c -5.75153,-9.86883 -21.12529,-22.66913 -32.24155,-30.622 z"/></g></g></svg>