<svg xmlns="http://www.w3.org/2000/svg" width="92" height="92"><defs><filter height="1.5" width="1.5" y="0" x="0" color-interpolation-filters="sRGB"><feOffset dy="0" dx="1" in="SourceAlpha" result="offOut"/><feGaussianBlur stdDeviation="1" in="offOut" result="blurOut"/></filter><linearGradient y2="1" x2="0" y1="0" x1="0"><stop style="stop-color:rgb(255,255,255);stop-opacity:0.6" offset="20%"/><stop style="stop-color:rgb(220,0,0);stop-opacity:0.5" offset="50%"/></linearGradient><linearGradient y2="1" x2="0" y1="0" x1="0"><stop style="stop-color:rgb(0,0,0);stop-opacity:0.3" offset="20%"/><stop style="stop-color:rgb(0,0,0);stop-opacity:0.6" offset="100%"/></linearGradient><filter style="color-interpolation-filters:sRGB;" id="filter23676"><feFlood flood-opacity="1" flood-color="rgb(91,93,90)" result="flood"/><feComposite in="flood" in2="SourceGraphic" operator="in" result="composite1"/><feGaussianBlur in="composite1" stdDeviation="0" result="blur"/><feOffset dx="0" dy="4" result="offset"/><feComposite in="SourceGraphic" in2="offset" operator="over" result="composite2"/></filter></defs><g style="display:inline"><g transform="translate(0.6186409,-2.3347435)" style="filter:url(#filter23676)"><g><circle style="color:#000000;display:inline;overflow:visible;visibility:visible;opacity:1;fill:#ffffff;fill-opacity:1;fill-rule:nonzero;stroke:#ffffff;stroke-width:0.32569826;stroke-linecap:round;stroke-linejoin:miter;stroke-miterlimit:10;stroke-dasharray:none;stroke-dashoffset:0;stroke-opacity:0.48743723;marker:none;enable-background:accumulate" cx="45.381359" cy="48.334743" r="40.79224"/><circle r="32.643799" cy="48.334743" cx="45.381359" style="color:#000000;display:inline;overflow:visible;visibility:visible;opacity:1;fill:none;fill-opacity:1;fill-rule:nonzero;stroke:#d40000;stroke-width:3;stroke-linecap:round;stroke-linejoin:miter;stroke-miterlimit:10;stroke-dasharray:none;stroke-dashoffset:0;stroke-opacity:1;marker:none;enable-background:accumulate"/></g></g><g transform="matrix(0.4387017,0,0,0.36737091,-467.96081,-73.362034)" style="display:inline"><g transform="matrix(0.91849155,-0.04088349,0.02866942,0.91849155,95.269582,54.832886)"><path style="fill:#d40000;stroke:#d40000;stroke-width:2.65330386;stroke-miterlimit:10" d="m 1213.6335,288.03625 -92.5944,36.18456 c 0,0 -8.0242,8.93392 -2.8931,21.42532 l 0.063,0.30499 0.063,0.30498 c 4.9395,12.5585 16.4998,12.34665 16.4998,12.34665 37.098,-28.13428 66.1489,-38.4485 87.024,-50.31774 -0.192,-4.06467 -1.8458,-7.47907 -2.8249,-11.1936 -1.3824,-3.19489 -2.9322,-6.31529 -5.3374,-9.05516 z"/><ellipse style="fill:#d40000;stroke:#d40000;stroke-width:3.00610209;stroke-miterlimit:10" cy="677.90155" cx="1017.132" stroke-miterlimit="10" rx="3.753881" ry="3.6617434" transform="matrix(0.95110508,-0.30886749,0.22204229,0.97503704,0,0)"/></g><path d="m 1188.053,314.76933 -0.1997,22.82133 -37.6537,4.53206 c -16.1431,26.71247 -25.0217,28.93186 -41.2475,19.47896 18.33,-6.79184 27.9258,-27.84095 38.5459,-46.51534 z" style="opacity:1;fill:#d40000;fill-opacity:1;stroke:#ffffff;stroke-width:1.83159566;stroke-linecap:square;stroke-linejoin:miter;stroke-miterlimit:4;stroke-dasharray:none;stroke-opacity:1;paint-order:normal"/><ellipse transform="matrix(0.99442868,-0.10541155,0.07412913,0.99724865,0,0)" ry="32.340363" rx="27.158773" cy="464.07581" cx="1156.8053" style="opacity:1;fill:#d40000;fill-opacity:1;stroke:#ffffff;stroke-width:1.99324226;stroke-linecap:square;stroke-linejoin:bevel;stroke-miterlimit:4;stroke-dasharray:none;stroke-opacity:1;paint-order:normal"/><ellipse ry="21.17234" rx="17.729818" cy="340.7244" cx="1184.762" style="opacity:1;fill:#ffffff;fill-opacity:1;stroke:#ffffff;stroke-width:2.05792236;stroke-linecap:square;stroke-linejoin:miter;stroke-miterlimit:4;stroke-dasharray:none;stroke-opacity:1;paint-order:normal"/><rect transform="matrix(0.65516628,-0.75548471,0.62877406,0.77758805,0,0)" y="1114.9623" x="716.30316" height="41.684681" width="2.9027057" style="opacity:1;fill:#000000;fill-opacity:1;stroke:#000000;stroke-width:2.2210741;stroke-linecap:square;stroke-linejoin:miter;stroke-miterlimit:4;stroke-dasharray:none;stroke-opacity:1;paint-order:normal"/><rect transform="matrix(0.62961158,0.77691007,-0.65434208,0.75619868,0,0)" y="-737.57782" x="1135.4928" height="41.437584" width="2.9200215" style="display:inline;opacity:1;fill:#d40000;fill-opacity:1;stroke:#d40000;stroke-width:2.22107673;stroke-linecap:square;stroke-linejoin:miter;stroke-miterlimit:4;stroke-dasharray:none;stroke-opacity:1;paint-order:normal"/><rect style="opacity:1;fill:#d40000;fill-opacity:1;stroke:#d40000;stroke-width:2.2210741;stroke-linecap:square;stroke-linejoin:miter;stroke-miterlimit:4;stroke-dasharray:none;stroke-opacity:1;paint-order:normal" width="2.9027057" height="41.684681" x="716.30316" y="1114.9623" transform="matrix(0.65516628,-0.75548471,0.62877406,0.77758805,0,0)"/><rect style="display:inline;opacity:1;fill:#d40000;fill-opacity:1;stroke:#d40000;stroke-width:2.2037704;stroke-linecap:square;stroke-linejoin:miter;stroke-miterlimit:4;stroke-dasharray:none;stroke-opacity:1;paint-order:normal" width="3.156975" height="37.732437" x="335.91415" y="-1204.6082" transform="matrix(-0.0023305,0.99999728,-0.99999448,-0.00332335,0,0)"/><rect transform="matrix(0.99998924,0.00463819,-0.00325253,0.99999471,0,0)" y="312.78543" x="1184.5417" height="45.058598" width="2.6436777" style="opacity:1;fill:#d40000;fill-opacity:1;stroke:#d40000;stroke-width:2.20377064;stroke-linecap:square;stroke-linejoin:miter;stroke-miterlimit:4;stroke-dasharray:none;stroke-opacity:1;paint-order:normal"/></g></g><g style="display:inline"/></svg>