<svg xmlns="http://www.w3.org/2000/svg" width="92" height="92"><defs><filter height="1.5" width="1.5" y="0" x="0" color-interpolation-filters="sRGB"><feOffset dy="0" dx="1" in="SourceAlpha" result="offOut"/><feGaussianBlur stdDeviation="1" in="offOut" result="blurOut"/></filter><linearGradient y2="1" x2="0" y1="0" x1="0"><stop style="stop-color:rgb(255,255,255);stop-opacity:0.6" offset="20%"/><stop style="stop-color:rgb(220,0,0);stop-opacity:0.5" offset="50%"/></linearGradient><linearGradient y2="1" x2="0" y1="0" x1="0"><stop style="stop-color:rgb(0,0,0);stop-opacity:0.3" offset="20%"/><stop style="stop-color:rgb(0,0,0);stop-opacity:0.6" offset="100%"/></linearGradient><filter style="color-interpolation-filters:sRGB;" id="filter19739"><feFlood flood-opacity="1" flood-color="rgb(91,93,90)" result="flood"/><feComposite in="flood" in2="SourceGraphic" operator="in" result="composite1"/><feGaussianBlur in="composite1" stdDeviation="0" result="blur"/><feOffset dx="0" dy="4" result="offset"/><feComposite in="SourceGraphic" in2="offset" operator="over" result="composite2"/></filter></defs><g style="display:inline"><g transform="translate(0.6186409,-2.3347435)" style="filter:url(#filter19739)"><g><circle style="color:#000000;display:inline;overflow:visible;visibility:visible;opacity:1;fill:#ffffff;fill-opacity:1;fill-rule:nonzero;stroke:#ffffff;stroke-width:0.32569826;stroke-linecap:round;stroke-linejoin:miter;stroke-miterlimit:10;stroke-dasharray:none;stroke-dashoffset:0;stroke-opacity:0.48743723;marker:none;enable-background:accumulate" cx="45.381359" cy="48.334743" r="40.79224"/><circle r="32.643799" cy="48.334743" cx="45.381359" style="color:#000000;display:inline;overflow:visible;visibility:visible;opacity:1;fill:none;fill-opacity:1;fill-rule:nonzero;stroke:#000000;stroke-width:3;stroke-linecap:round;stroke-linejoin:miter;stroke-miterlimit:10;stroke-dasharray:none;stroke-dashoffset:0;stroke-opacity:1;marker:none;enable-background:accumulate"/></g></g><g aria-label="車" style="font-style:normal;font-variant:normal;font-weight:500;font-stretch:normal;font-size:53.33333206px;line-height:1.25;font-family:'cwTeX Q Kai';-inkscape-font-specification:'cwTeX Q Kai, Medium';font-variant-ligatures:normal;font-variant-caps:normal;font-variant-numeric:normal;font-feature-settings:normal;text-align:start;letter-spacing:0px;word-spacing:0px;writing-mode:lr-tb;text-anchor:start;display:inline;fill:#000000;fill-opacity:1;stroke:#000000;stroke-width:1;stroke-miterlimit:4;stroke-dasharray:none;stroke-opacity:1"><path d="m 60.84375,50.062499 q 1.40625,0 3.333334,1.197917 1.927083,1.197916 1.927083,2.135416 0,0.208334 -0.05208,0.3125 l -0.625,0.364584 q -15,0.15625 -16.09375,0.208333 l -1.71875,0.104167 -0.15625,0.208333 q 0,10.625 -0.625,13.072916 l -0.416667,0.989584 -0.05208,0.104166 q -1.927083,-0.05208 -1.927083,-8.385416 0,-3.28125 0.208333,-5.572917 l -0.208333,-0.15625 q -4.947917,0.260417 -9.947917,1.354167 l -4.479166,1.09375 h -0.104167 q -0.05208,0 -0.208333,0.05208 -0.15625,0 -0.260417,0 -2.083333,0 -3.541666,-2.135416 l 0.3125,-0.364584 18.385416,-1.979166 q 0.15625,-0.625 0.15625,-2.1875 0,-0.208334 -0.05208,-0.78125 0,-0.625 0,-0.9375 -0.9375,0.05208 -5.052083,0.625 l -0.46875,0.833333 -0.05208,0.05208 q -2.083333,-0.208333 -2.8125,-3.489583 l -1.145833,-5.15625 q -0.78125,-2.552083 -2.135417,-4.322916 0.104167,-0.260417 0.416667,-0.46875 0.625,0 2.65625,0.677083 4.322916,-0.520833 8.385416,-1.40625 l 0.104167,-3.541667 -3.958334,0.3125 q -2.552083,-0.05208 -3.333333,-1.25 0.05208,-0.364583 0.729167,-0.46875 L 40.114584,31 l 4.375,-0.625 q 0,-2.083334 -0.364583,-3.385417 -0.3125,-1.354167 -0.677084,-1.770833 -0.364583,-0.46875 -0.9375,-0.885417 v -0.46875 q 0.208334,-0.3125 1.09375,-0.729167 3.802084,0.520834 5.052084,2.5 0,0.364584 -0.364584,1.145834 -0.3125,0.729166 -0.364583,0.885416 l -0.3125,1.875 q 0.885417,-0.05208 2.864583,-0.677083 1.979167,-0.625 3.28125,-0.625 1.510417,0 2.760417,1.041667 0,0.677083 -1.302084,1.145833 -1.249999,0.46875 -4.999999,1.041666 l -2.604167,0.46875 -0.208333,3.59375 7.135416,-0.9375 q 0.572917,-0.05208 1.666667,-0.05208 L 59.125,36.156249 q 1.041667,0.677084 1.5625,1.5625 0,0.46875 -0.364583,0.78125 -0.3125,0.260417 -1.145833,1.145834 -0.78125,0.885416 -1.614584,2.5 l -2.1875,5.364583 -0.677083,1.09375 q -0.364583,0.364583 -1.5625,0.364583 -0.364583,-0.364583 -0.46875,-0.9375 -1.5625,0 -5.104166,0.3125 l -0.104167,3.802083 h 0.364583 q 1.458334,0 11.5625,-1.770833 1.302083,-0.3125 1.458333,-0.3125 z m -8.124999,-13.125 q -1.458334,0 -5.260417,0.572917 v 3.28125 l 2.604167,-0.15625 q 0.9375,0.05208 1.71875,1.041667 0,0.572916 -0.15625,0.625 l -4.166667,0.625 v 3.541666 q 2.96875,-0.46875 3.385417,-0.46875 1.25,0 1.979166,0.520833 Q 54.75,40.843749 55.0625,37.302083 54.854167,36.937499 52.718751,36.937499 Z m -8.125,10.104167 v -3.697917 l -2.708334,0.3125 q -0.989583,-0.05208 -1.510416,-0.729166 0,-0.520834 0.208333,-0.572917 l 0.625,-0.104167 q 0.3125,-0.05208 3.385417,-0.729166 v -3.541667 q -4.322917,0.572917 -6.927083,1.458333 l 1.041666,5.3125 q 0.260417,1.5625 0.729167,3.020833 z" style=""/></g></g><g style="display:inline"/></svg>