<svg xmlns="http://www.w3.org/2000/svg" width="92" height="92"><defs><filter height="1.5" width="1.5" y="0" x="0" color-interpolation-filters="sRGB"><feOffset dy="0" dx="1" in="SourceAlpha" result="offOut"/><feGaussianBlur stdDeviation="1" in="offOut" result="blurOut"/></filter><linearGradient y2="1" x2="0" y1="0" x1="0"><stop style="stop-color:rgb(255,255,255);stop-opacity:0.6" offset="20%"/><stop style="stop-color:rgb(220,0,0);stop-opacity:0.5" offset="50%"/></linearGradient><linearGradient y2="1" x2="0" y1="0" x1="0"><stop style="stop-color:rgb(0,0,0);stop-opacity:0.3" offset="20%"/><stop style="stop-color:rgb(0,0,0);stop-opacity:0.6" offset="100%"/></linearGradient><filter style="color-interpolation-filters:sRGB;" id="filter18479"><feFlood flood-opacity="1" flood-color="rgb(91,93,90)" result="flood"/><feComposite in="flood" in2="SourceGraphic" operator="in" result="composite1"/><feGaussianBlur in="composite1" stdDeviation="0" result="blur"/><feOffset dx="0" dy="4" result="offset"/><feComposite in="SourceGraphic" in2="offset" operator="over" result="composite2"/></filter></defs><g style="display:inline"><g transform="translate(0.6186409,-2.3347435)" style="filter:url(#filter18479)"><g><circle style="color:#000000;display:inline;overflow:visible;visibility:visible;opacity:1;fill:#ffffff;fill-opacity:1;fill-rule:nonzero;stroke:#ffffff;stroke-width:0.32569826;stroke-linecap:round;stroke-linejoin:miter;stroke-miterlimit:10;stroke-dasharray:none;stroke-dashoffset:0;stroke-opacity:0.48743723;marker:none;enable-background:accumulate" cx="45.381359" cy="48.334743" r="40.79224"/><circle r="32.643799" cy="48.334743" cx="45.381359" style="color:#000000;display:inline;overflow:visible;visibility:visible;opacity:1;fill:none;fill-opacity:1;fill-rule:nonzero;stroke:#000000;stroke-width:3;stroke-linecap:round;stroke-linejoin:miter;stroke-miterlimit:10;stroke-dasharray:none;stroke-dashoffset:0;stroke-opacity:1;marker:none;enable-background:accumulate"/></g></g></g><g style="display:inline"><g aria-label="хгл" style="font-style:normal;font-variant:normal;font-weight:500;font-stretch:normal;font-size:53.33333206px;line-height:1.25;font-family:'cwTeX Q Kai';-inkscape-font-specification:'cwTeX Q Kai, Medium';font-variant-ligatures:normal;font-variant-caps:normal;font-variant-numeric:normal;font-feature-settings:normal;text-align:start;letter-spacing:0px;word-spacing:0px;writing-mode:lr-tb;text-anchor:start;fill:#000000;fill-opacity:1;stroke:#000000;stroke-width:1;stroke-miterlimit:4;stroke-dasharray:none;stroke-opacity:1"><path d="m 62.302084,42.093749 q 0.989583,0 3.072916,1.40625 2.135417,1.354167 2.135417,2.1875 0,0.416667 -0.625,0.677083 L 56.9375,45.947916 q -5.052083,0 -10.364583,0.833333 l -0.3125,13.697916 q 0.572917,0 3.802084,-0.572916 3.229166,-0.572917 4.270833,-0.572917 1.822916,0 3.177083,0.625 1.354167,0.625 1.822917,1.25 0.46875,0.625 0.416666,0.9375 0,0.05208 -0.05208,0.15625 0,0.05208 -0.05208,0.104167 l -0.625,0.364583 q -10.3125,0 -16.5625,0.677083 l -7.395833,1.145834 h -0.05208 -0.3125 q -1.875,0 -2.96875,-1.666667 0,-0.46875 0.364583,-0.520833 l 11.458333,-1.458334 0.104167,-13.802083 q -6.822917,0.729167 -9.375,1.354167 l -4.270833,1.25 q -0.625,0.15625 -1.197917,0.15625 -2.864583,0 -4.322916,-2.1875 l 0.104166,-0.572917 q 0.05208,-0.208333 0.3125,-0.208333 3.125,0 10.729167,-0.989583 7.604166,-1.041667 7.916666,-1.09375 V 32.927083 q 0,-1.666667 -1.614583,-4.21875 0,-1.302083 1.5625,-1.302083 0.677083,0 1.979166,0.78125 1.354167,0.729166 2.34375,1.71875 0.15625,0.520833 -0.260416,1.562499 0,0.104167 -0.104167,0.364584 -0.104167,0.260416 -0.260417,0.9375 -0.104166,0.625 -0.260416,1.71875 -0.104167,1.09375 -0.208334,3.333333 -0.104166,2.239583 -0.104166,5.208333 l -0.05208,1.40625 h 0.520834 q 1.354166,0 5.729166,-0.625 4.427083,-0.625 6.041667,-0.989583 l 2.864583,-0.677083 q 0.208333,-0.05208 0.572917,-0.05208 z" style="font-style:normal;font-variant:normal;font-weight:500;font-stretch:normal;font-size:53.33333206px;font-family:'cwTeX Q Kai';-inkscape-font-specification:'cwTeX Q Kai, Medium';font-variant-ligatures:normal;font-variant-caps:normal;font-variant-numeric:normal;font-feature-settings:normal;text-align:start;writing-mode:lr-tb;text-anchor:start;stroke:#000000;stroke-width:1;stroke-miterlimit:4;stroke-dasharray:none;stroke-opacity:1"/></g></g></svg>