<svg xmlns="http://www.w3.org/2000/svg" width="92" height="92"><defs><filter height="1.5" width="1.5" y="0" x="0" color-interpolation-filters="sRGB"><feOffset dy="0" dx="1" in="SourceAlpha" result="offOut"/><feGaussianBlur stdDeviation="1" in="offOut" result="blurOut"/></filter><linearGradient y2="1" x2="0" y1="0" x1="0"><stop style="stop-color:rgb(255,255,255);stop-opacity:0.6" offset="20%"/><stop style="stop-color:rgb(220,0,0);stop-opacity:0.5" offset="50%"/></linearGradient><linearGradient y2="1" x2="0" y1="0" x1="0"><stop style="stop-color:rgb(0,0,0);stop-opacity:0.3" offset="20%"/><stop style="stop-color:rgb(0,0,0);stop-opacity:0.6" offset="100%"/></linearGradient><filter style="color-interpolation-filters:sRGB;" id="filter23057"><feFlood flood-opacity="1" flood-color="rgb(91,93,90)" result="flood"/><feComposite in="flood" in2="SourceGraphic" operator="in" result="composite1"/><feGaussianBlur in="composite1" stdDeviation="0" result="blur"/><feOffset dx="0" dy="4" result="offset"/><feComposite in="SourceGraphic" in2="offset" operator="over" result="composite2"/></filter></defs><g style="display:inline"><g transform="translate(0.6186409,-2.3347435)" style="filter:url(#filter23057)"><g><circle style="color:#000000;display:inline;overflow:visible;visibility:visible;opacity:1;fill:#ffffff;fill-opacity:1;fill-rule:nonzero;stroke:#ffffff;stroke-width:0.32569826;stroke-linecap:round;stroke-linejoin:miter;stroke-miterlimit:10;stroke-dasharray:none;stroke-dashoffset:0;stroke-opacity:0.48743723;marker:none;enable-background:accumulate" cx="45.381359" cy="48.334743" r="40.79224"/><circle r="32.643799" cy="48.334743" cx="45.381359" style="color:#000000;display:inline;overflow:visible;visibility:visible;opacity:1;fill:none;fill-opacity:1;fill-rule:nonzero;stroke:#d40000;stroke-width:3;stroke-linecap:round;stroke-linejoin:miter;stroke-miterlimit:10;stroke-dasharray:none;stroke-dashoffset:0;stroke-opacity:1;marker:none;enable-background:accumulate"/></g></g><g aria-label="ไป" style="font-style:normal;font-variant:normal;font-weight:500;font-stretch:normal;font-size:53.33333206px;line-height:1.25;font-family:'cwTeX Q Kai';-inkscape-font-specification:'cwTeX Q Kai, Medium';font-variant-ligatures:normal;font-variant-caps:normal;font-variant-numeric:normal;font-feature-settings:normal;text-align:start;letter-spacing:0px;word-spacing:0px;writing-mode:lr-tb;text-anchor:start;display:inline;fill:#d40000;fill-opacity:1;stroke:#d40000;stroke-width:1;stroke-miterlimit:4;stroke-dasharray:none;stroke-opacity:1"><path d="m 51.468751,33.447916 q 0,-1.09375 -0.78125,-2.760416 -0.78125,-1.666667 -1.302084,-2.1875 0,-1.09375 1.197917,-1.09375 1.510417,0 4.21875,1.354166 l 0.833333,0.885417 q -1.40625,7.447916 -1.40625,13.385416 l 6.510417,-1.458333 q 1.5625,-0.208333 2.239583,-0.208333 2.8125,0 4.427083,1.510416 0,0.677084 -0.572916,0.989584 -7.291667,0.625 -12.5,1.354166 -0.15625,1.041667 -0.260417,5.364583 -0.104166,4.322917 -0.208333,5.572917 0.625,0 3.489583,-0.46875 2.864583,-0.520833 3.75,-0.520833 1.822917,0 3.072917,0.677083 1.25,0.625 1.5625,1.302083 0,0.677084 -0.833334,0.833334 -0.520833,0.104166 -5.3125,0.104166 h -0.572916 q -8.229167,0.3125 -14.375,1.666667 -1.822917,-0.364584 -2.65625,-1.458333 0,-0.416667 0.260417,-0.520834 l 9.166666,-1.145833 q 0.364584,-5.260417 0.364584,-10.833333 -2.760417,0 -7.1875,1.09375 l -1.614584,0.364583 h -0.104166 q -1.25,0 -2.708333,-1.145833 l -0.833334,-0.78125 q 0.104167,-0.78125 4.21875,-0.833333 h 0.260417 l 7.8125,-0.833334 0.15625,-0.104166 z M 36.937501,27.25 q 0.9375,0 2.291667,0.677083 1.354166,0.677083 1.822916,1.302083 v 0.416667 q -3.177083,6.354166 -5.9375,10.46875 0.208334,0.3125 0.833334,0.9375 0.677083,0.625 1.09375,1.197916 0.46875,0.572917 0.46875,1.09375 l -0.15625,0.729167 q -0.572917,3.125 -0.572917,9.479166 v 1.145834 2.604166 q 0,7.291667 -1.666667,7.291667 -0.260416,0 -0.677083,-0.260417 -0.416667,-0.260417 -0.885417,-1.145833 -0.46875,-0.885417 -0.46875,-2.1875 0,-0.625 0.833334,-4.479167 0.833333,-3.90625 0.833333,-7.604166 0,-3.75 -0.833333,-6.71875 l -0.208334,-0.15625 q -2.34375,2.760417 -4.791666,4.791666 -2.395834,1.979167 -3.90625,2.5 l -0.416667,-0.05208 q 5.052083,-5.3125 8.489583,-10.625 3.4375,-5.3125 3.4375,-8.229166 0,-0.260417 -0.260416,-2.1875 0,-0.05208 -0.05208,-0.15625 0,-0.104167 0,-0.208333 0,-0.625 0.729167,-0.625 z" style=""/></g></g><g style="display:inline"/></svg>